Coordinates
version=1
nRows=54
nColumns=12
inDegrees=yes

Units are S.I. units (second, meters, Newtons, ...)
Angles are in degrees

endheader
time	SC_y	SC_z	SC_x	AC_y	AC_z	AC_x	GH_y	GH_z	GH_yy	EL_x	PS_y
       0.0              -19.03          8.459          37.18          33.19          9.365          2.937          32.19         -13.67         -57.54          49.12          145.8
   0.01226              -19.04          8.462          37.18           33.2          9.364          2.938          32.16         -13.66         -57.53          49.12          145.8
   0.02452              -19.04          8.467          37.18           33.2          9.363           2.94          32.13         -13.65         -57.51          49.12          145.8
   0.03678              -19.05          8.471          37.18           33.2          9.362          2.941           32.1         -13.64         -57.49          49.12          145.8
   0.04903              -19.05          8.476          37.18          33.21           9.36          2.943          32.07         -13.64         -57.47          49.12          145.7
   0.06129              -19.06          8.481          37.18          33.21          9.359          2.945          32.04         -13.63         -57.45          49.11          145.7
   0.07355              -19.07          8.486          37.18          33.21          9.357          2.947           32.0         -13.62         -57.43          49.11          145.7
   0.08581              -19.08          8.492          37.18          33.22          9.356          2.949          31.96         -13.61          -57.4          49.11          145.7
   0.09807              -19.08          8.498          37.18          33.22          9.354          2.951          31.92          -13.6         -57.38          49.11          145.7
    0.1103              -19.09          8.504          37.18          33.23          9.352          2.954          31.87         -13.59         -57.35          49.11          145.7
    0.1226               -19.1          8.512          37.18          33.23           9.35          2.956          31.83         -13.57         -57.32          49.11          145.6
    0.1348              -19.11          8.519          37.18          33.24          9.348          2.959          31.77         -13.56         -57.29           49.1          145.6
    0.1471              -19.12          8.527          37.18          33.24          9.346          2.962          31.72         -13.55         -57.25           49.1          145.6
    0.1594              -19.14          8.536          37.18          33.25          9.344          2.965          31.66         -13.53         -57.21           49.1          145.6
    0.1716              -19.15          8.546          37.18          33.26          9.341          2.969          31.59         -13.52         -57.17           49.1          145.5
    0.1839              -19.16          8.556          37.18          33.26          9.338          2.972          31.52          -13.5         -57.13          49.09          145.5
    0.1961              -19.18          8.567          37.18          33.27          9.335          2.976          31.44         -13.48         -57.08          49.09          145.5
    0.2084               -19.2           8.58          37.18          33.28          9.332          2.981          31.36         -13.46         -57.03          49.09          145.4
    0.2207              -19.21          8.593          37.18          33.29          9.328          2.986          31.27         -13.43         -56.97          49.08          145.4
    0.2329              -19.23          8.608          37.18           33.3          9.324          2.991          31.17         -13.41         -56.91          49.08          145.4
    0.2452              -19.26          8.624          37.18          33.31          9.319          2.997          31.06         -13.38         -56.84          49.07          145.3
    0.2574              -19.28          8.641          37.18          33.32          9.314          3.004          30.94         -13.35         -56.77          49.07          145.3
    0.2697              -19.31          8.661          37.18          33.34          9.309          3.011           30.8         -13.32         -56.69          49.06          145.2
    0.2819              -19.34          8.683          37.18          33.35          9.303          3.019          30.65         -13.28         -56.59          49.06          145.2
    0.2942              -19.37          8.707          37.18          33.37          9.296          3.027          30.49         -13.24         -56.49          49.05          145.1
    0.3065              -19.41          8.734          37.18          33.39          9.289          3.037          30.31         -13.19         -56.38          49.04          145.0
    0.3187              -19.45          8.764          37.18          33.41          9.281          3.048           30.1         -13.14         -56.25          49.04          144.9
     0.331              -19.49          8.798          37.19          33.44          9.271          3.061          29.87         -13.08         -56.11          49.03          144.8
    0.3432              -19.55          8.836          37.19          33.46          9.261          3.075          29.61         -13.02         -55.95          49.02          144.7
    0.3555              -19.61           8.88          37.19          33.49          9.249          3.091          29.31         -12.94         -55.76           49.0          144.6
    0.3678              -19.67          8.929          37.19          33.53          9.235          3.109          28.97         -12.86         -55.55          48.99          144.5
      0.38              -19.75          8.986          37.19          33.57          9.219          3.129          28.58         -12.76         -55.31          48.97          144.3
    0.3923              -19.84          9.052          37.19          33.62          9.201          3.154          28.13         -12.65         -55.03          48.95          144.1
    0.4045              -19.95          9.129          37.19          33.67           9.18          3.181           27.6         -12.51         -54.71          48.93          143.9
    0.4168              -20.07          9.218          37.19          33.73          9.155          3.214          26.99         -12.36         -54.33          48.91          143.7
    0.4291              -20.21          9.324           37.2          33.81          9.126          3.253          26.27         -12.18         -53.88          48.88          143.4
    0.4413              -20.38          9.449           37.2           33.9          9.091          3.298          25.41         -11.96         -53.35          48.84          143.0
    0.4536              -20.59          9.599           37.2          34.01           9.05          3.353          24.39          -11.7         -52.72           48.8          142.6
    0.4658              -20.84          9.781          37.21          34.14            9.0           3.42          23.14         -11.39         -51.95          48.75          142.1
    0.4781              -21.14           10.0          37.21          34.29          8.938          3.501          21.62         -11.01         -51.01          48.69          141.5
    0.4903              -21.52          10.28          37.21          34.49          8.862          3.601          19.75         -10.54         -49.85          48.61          140.7
    0.5026              -21.98          10.62          37.22          34.73          8.768          3.725          17.41         -9.952          -48.4          48.52          139.8
    0.5149              -22.57          11.05          37.23          35.04          8.649          3.883          14.47         -9.213         -46.58           48.4          138.6
    0.5271              -23.32           11.6          37.24          35.43          8.498          4.082          10.73         -8.272         -44.27          48.24          137.0
    0.5394              -24.28           12.3          37.26          35.93          8.304          4.338          5.935         -7.068         -41.31          48.05          135.1
    0.5516               -25.5           13.2          37.27          36.57          8.056          4.666         -0.213         -5.523          -37.5          47.79          132.6
    0.5639              -27.07          14.34           37.3          37.39          7.739          5.086         -8.066          -3.55         -32.65          47.47          129.4
    0.5762              -29.05          15.79          37.32          38.42           7.34          5.613         -17.94         -1.068         -26.54          47.07          125.4
    0.5884              -31.45          17.55          37.36          39.67          6.854          6.255         -29.97          1.956          -19.1          46.58          120.5
    0.6007              -34.24          19.59           37.4          41.12           6.29            7.0         -43.92          5.461         -10.47          46.01          114.8
    0.6129              -37.25           21.8          37.44           42.7           5.68          7.806         -59.02          9.256          -1.13          45.39          108.6
    0.6252              -40.27           24.0          37.49          44.27           5.07          8.612         -74.13          13.05          8.211          44.77          102.5
    0.6375              -43.06          26.04          37.53          45.72          4.506          9.357         -88.08          16.56          16.84           44.2           96.8
    0.6497              -45.46           27.8          37.56          46.98           4.02          9.999         -100.1          19.58          24.28          43.71           91.9
